# xmcd
#
# Track frame offsets: 
#        150
#        12535
#        22007
#        33977
#        52685
#        63792
#        75720
#        85442
#        101112
#        113087
#        124835
#        139750
#
# Disc length: 2198 seconds
#
# Revision: 2
# Processed by: cddbd v1.5.2PL0 Copyright (c) Steve Scherf et al.
# Submitted via: ExactAudioCopy v1.0b4
#
DISCID=9808940c
DTITLE=Bobby Bland - The Best Of Bobby Bland - The Millennium Collecti
DTITLE=on
DYEAR=2000
DGENRE=Blues
TTITLE0=I Pity the Fool
TTITLE1=Lead Me On
TTITLE2=Turn On Your Love Light
TTITLE3=Stormy Monday Blues
TTITLE4=Who Will The Next Fool Be?
TTITLE5=That's The Way Love Is
TTITLE6=Poverty
TTITLE7=Driftin' Blues
TTITLE8=Ain't Nothin' You Can Do
TTITLE9=I'm Too Far Gone (To Turn Around)
TTITLE10=I Wouldn't Treat A Dog (The Way You Treated Me)
TTITLE11=Goin' Down Slow
EXTD=
EXTT0=
EXTT1=
EXTT2=
EXTT3=
EXTT4=
EXTT5=
EXTT6=
EXTT7=
EXTT8=
EXTT9=
EXTT10=
EXTT11=
PLAYORDER=
